# xmcd
#
# Track frame offsets: 
#        150
#        11512
#        20779
#        31419
#        50189
#        62447
#        74359
#        83589
#        96157
#        110834
#        121738
#        142281
#        154719
#        166556
#        182592
#        196342
#        211649
#        227871
#        240821
#        260361
#        274447
#        284824
#        305204
#        321419
#
# Disc length: 4455 seconds
#
# Revision: 7
# Processed by: cddbd v1.5.2PL0 Copyright (c) Steve Scherf et al.
# Submitted via: ExactAudioCopy v0.95b4
#
DISCID=5e116518
DTITLE=Elvis Presley - Great Country Songs
DYEAR=1967
DGENRE=Country
TTITLE0=I Forgot To Remember To Forget
TTITLE1=Blue Moon Of Kentucky
TTITLE2=When My Blue Moon Turns To Gold Again
TTITLE3=Old Shep
TTITLE4=Your Cheatin' Heart (Alternate Take 9)
TTITLE5=(Now And Then There's) A Fool Such As I
TTITLE6=Just Call Me Lonesome (Alternate Take 6)
TTITLE7=There Goes My Everything (Alternate Take 1)
TTITLE8=Kentucky Rain
TTITLE9=From A Jack To A King
TTITLE10=I'll Hold You In My Heart
TTITLE11=I Really Don't Want To Know
TTITLE12=It Keeps Right On A Hurtin'
TTITLE13=Green Green Grass Of Home (Alternate Take 1)
TTITLE14=Fairytale (Alternate Take 2)
TTITLE15=Gentle On My Mind
TTITLE16=Make The World Go Away
TTITLE17=You Asked Me Too
TTITLE18=Funny How Time Slips Away
TTITLE19=Help Me Make It Through the Night (Alternate Take 3)
TTITLE20=Susan When She Tried
TTITLE21=He'll Have To Go
TTITLE22=Always On My Mind
TTITLE23=Guitar Man (Remake)
EXTD=
EXTT0=
EXTT1=
EXTT2=
EXTT3=
EXTT4=
EXTT5=
EXTT6=
EXTT7=
EXTT8=
EXTT9=
EXTT10=
EXTT11=
EXTT12=
EXTT13=
EXTT14=
EXTT15=
EXTT16=
EXTT17=
EXTT18=
EXTT19=
EXTT20=
EXTT21=
EXTT22=
EXTT23=
PLAYORDER=
